<!DOCTYPE svg PUBLIC "-//W3C//DTD SVG 1.1//EN" "http://www.w3.org/Graphics/SVG/1.1/DTD/svg11.dtd">
<!-- Uploaded to: SVG Repo, www.svgrepo.com, Transformed by: SVG Repo Mixer Tools -->
<svg fill="#f00f0f" version="1.1" id="Capa_1" xmlns="http://www.w3.org/2000/svg" xmlns:xlink="http://www.w3.org/1999/xlink" width="800px" height="800px" viewBox="0 0 31.062 31.062" xml:space="preserve">
<g id="SVGRepo_bgCarrier" stroke-width="0"/>
<g id="SVGRepo_tracerCarrier" stroke-linecap="round" stroke-linejoin="round"/>
<g id="SVGRepo_iconCarrier"> <g> <g> <path d="M6.656,2.462c-0.287-0.829-2.08-1.08-2.209,0.377c-0.148,1.644,1.662,2.554,2.11,2.753v2.969c0,0.055,0.044,0.1,0.099,0.1 s0.1-0.044,0.1-0.1V5.592c0.448-0.199,2.258-1.11,2.111-2.753C8.736,1.382,6.943,1.633,6.656,2.462z M5.401,4.412 C4.675,3.986,4.376,1.721,5.885,2.266C5.218,2.481,4.991,3.612,5.401,4.412z"/> <path d="M11.093,2.462c-0.287-0.829-2.08-1.08-2.209,0.377c-0.148,1.644,1.662,2.554,2.11,2.753v2.969 c0,0.055,0.044,0.1,0.099,0.1s0.1-0.044,0.1-0.1V5.592c0.448-0.199,2.258-1.11,2.111-2.753 C13.173,1.382,11.381,1.633,11.093,2.462z M9.839,4.412c-0.726-0.426-1.025-2.691,0.484-2.146 C9.656,2.481,9.429,3.612,9.839,4.412z"/> <path d="M19.968,2.462c-0.288-0.829-2.08-1.08-2.21,0.377c-0.148,1.644,1.662,2.554,2.11,2.753v2.969c0,0.055,0.044,0.1,0.1,0.1 c0.055,0,0.1-0.044,0.1-0.1V5.592c0.449-0.199,2.258-1.11,2.111-2.753C22.048,1.382,20.256,1.633,19.968,2.462z M18.713,4.412 c-0.726-0.426-1.025-2.691,0.483-2.146C18.529,2.481,18.304,3.612,18.713,4.412z"/> <path d="M24.405,2.462c-0.288-0.829-2.08-1.08-2.21,0.377c-0.147,1.644,1.662,2.554,2.111,2.753v2.969 c0,0.055,0.044,0.1,0.099,0.1c0.056,0,0.101-0.044,0.101-0.1V5.592c0.447-0.199,2.258-1.11,2.11-2.753 C26.485,1.382,24.692,1.633,24.405,2.462z M23.15,4.412c-0.725-0.426-1.024-2.691,0.484-2.146 C22.968,2.481,22.74,3.612,23.15,4.412z"/> <path d="M2.219,9.331c-0.288-0.829-2.08-1.08-2.21,0.377c-0.148,1.645,1.662,2.555,2.11,2.754v2.968c0,0.056,0.044,0.1,0.1,0.1 c0.055,0,0.1-0.044,0.1-0.1v-2.969c0.448-0.199,2.258-1.11,2.111-2.754C4.298,8.251,2.506,8.502,2.219,9.331z M0.964,11.28 c-0.726-0.426-1.025-2.691,0.484-2.146C0.781,9.35,0.554,10.481,0.964,11.28z"/> <path d="M6.656,9.331c-0.287-0.829-2.08-1.08-2.209,0.377c-0.148,1.645,1.662,2.555,2.11,2.754v2.968c0,0.056,0.044,0.1,0.099,0.1 s0.1-0.044,0.1-0.1v-2.969c0.448-0.199,2.258-1.11,2.111-2.754C8.736,8.251,6.943,8.502,6.656,9.331z M5.401,11.28 c-0.726-0.426-1.025-2.691,0.484-2.146C5.218,9.35,4.991,10.481,5.401,11.28z"/> <path d="M11.093,9.331c-0.287-0.829-2.08-1.08-2.209,0.377c-0.148,1.645,1.662,2.555,2.11,2.754v2.968 c0,0.056,0.044,0.1,0.099,0.1s0.1-0.044,0.1-0.1v-2.969c0.448-0.199,2.258-1.11,2.111-2.754 C13.173,8.251,11.381,8.502,11.093,9.331z M9.839,11.28c-0.726-0.426-1.025-2.691,0.484-2.146 C9.656,9.35,9.429,10.481,9.839,11.28z"/> <path d="M15.531,9.331c-0.288-0.829-2.08-1.08-2.21,0.377c-0.148,1.645,1.662,2.555,2.111,2.754v2.968 c0,0.056,0.044,0.1,0.099,0.1s0.1-0.044,0.1-0.1v-2.969c0.447-0.199,2.258-1.11,2.109-2.754 C17.61,8.251,15.818,8.502,15.531,9.331z M14.276,11.28c-0.726-0.426-1.025-2.691,0.484-2.146 C14.093,9.35,13.866,10.481,14.276,11.28z"/> <path d="M19.968,9.331c-0.288-0.829-2.08-1.08-2.21,0.377c-0.148,1.645,1.662,2.555,2.11,2.754v2.968c0,0.056,0.044,0.1,0.1,0.1 c0.055,0,0.1-0.044,0.1-0.1v-2.969c0.449-0.199,2.258-1.11,2.111-2.754C22.048,8.251,20.256,8.502,19.968,9.331z M18.713,11.28 c-0.726-0.426-1.025-2.691,0.483-2.146C18.529,9.35,18.304,10.481,18.713,11.28z"/> <path d="M24.405,9.331c-0.288-0.829-2.08-1.08-2.21,0.377c-0.147,1.645,1.662,2.555,2.111,2.754v2.968 c0,0.056,0.044,0.1,0.099,0.1c0.056,0,0.101-0.044,0.101-0.1v-2.969c0.447-0.199,2.258-1.11,2.11-2.754 C26.485,8.251,24.692,8.502,24.405,9.331z M23.15,11.28c-0.725-0.426-1.024-2.691,0.484-2.146 C22.968,9.35,22.74,10.481,23.15,11.28z"/> <path d="M31.053,9.708c-0.13-1.457-1.923-1.206-2.21-0.377c-0.288-0.829-2.08-1.08-2.21,0.377 c-0.148,1.645,1.662,2.555,2.109,2.754v2.968c0,0.056,0.044,0.1,0.101,0.1c0.055,0,0.1-0.044,0.1-0.1v-2.969 C29.391,12.262,31.2,11.351,31.053,9.708z M27.588,11.28c-0.727-0.426-1.025-2.691,0.483-2.146 C27.404,9.35,27.178,10.481,27.588,11.28z"/> <path d="M6.656,16.199c-0.287-0.829-2.08-1.08-2.209,0.377c-0.148,1.645,1.662,2.556,2.11,2.754v2.97c0,0.056,0.044,0.1,0.099,0.1 s0.1-0.044,0.1-0.1v-2.97c0.448-0.198,2.258-1.109,2.111-2.754C8.736,15.119,6.943,15.37,6.656,16.199z M5.401,18.149 c-0.726-0.426-1.025-2.69,0.484-2.146C5.218,16.22,4.991,17.35,5.401,18.149z"/> <path d="M11.093,16.199c-0.287-0.829-2.08-1.08-2.209,0.377c-0.148,1.645,1.662,2.556,2.11,2.754v2.97 c0,0.056,0.044,0.1,0.099,0.1s0.1-0.044,0.1-0.1v-2.97c0.448-0.198,2.258-1.109,2.111-2.754 C13.173,15.119,11.381,15.37,11.093,16.199z M9.839,18.149c-0.726-0.426-1.025-2.69,0.484-2.146 C9.656,16.22,9.429,17.35,9.839,18.149z"/> <path d="M15.531,16.199c-0.288-0.829-2.08-1.08-2.21,0.377c-0.148,1.645,1.662,2.556,2.111,2.754v2.97 c0,0.056,0.044,0.1,0.099,0.1s0.1-0.044,0.1-0.1v-2.97c0.447-0.198,2.258-1.109,2.109-2.754 C17.61,15.119,15.818,15.37,15.531,16.199z M14.276,18.149c-0.726-0.426-1.025-2.69,0.484-2.146 C14.093,16.22,13.866,17.35,14.276,18.149z"/> <path d="M19.968,16.199c-0.288-0.829-2.08-1.08-2.21,0.377c-0.148,1.645,1.662,2.556,2.11,2.754v2.97c0,0.056,0.044,0.1,0.1,0.1 c0.055,0,0.1-0.044,0.1-0.1v-2.97c0.449-0.198,2.258-1.109,2.111-2.754C22.048,15.119,20.256,15.37,19.968,16.199z M18.713,18.149 c-0.726-0.426-1.025-2.69,0.483-2.146C18.529,16.22,18.304,17.35,18.713,18.149z"/> <path d="M24.405,16.199c-0.288-0.829-2.08-1.08-2.21,0.377c-0.147,1.645,1.662,2.556,2.111,2.754v2.97 c0,0.056,0.044,0.1,0.099,0.1c0.056,0,0.101-0.044,0.101-0.1v-2.97c0.447-0.198,2.258-1.109,2.11-2.754 C26.485,15.119,24.692,15.37,24.405,16.199z M23.15,18.149c-0.725-0.426-1.024-2.69,0.484-2.146 C22.968,16.22,22.74,17.35,23.15,18.149z"/> <path d="M15.531,23.069c-0.288-0.829-2.08-1.08-2.21,0.377c-0.148,1.645,1.662,2.554,2.111,2.753v2.97 c0,0.055,0.044,0.1,0.099,0.1s0.1-0.044,0.1-0.1v-2.97c0.447-0.199,2.258-1.109,2.109-2.753 C17.61,21.988,15.818,22.239,15.531,23.069z M14.276,25.019c-0.726-0.426-1.025-2.691,0.484-2.146 C14.093,23.089,13.866,24.219,14.276,25.019z"/> </g> </g> </g>
</svg>