<!DOCTYPE svg PUBLIC "-//W3C//DTD SVG 1.1//EN" "http://www.w3.org/Graphics/SVG/1.1/DTD/svg11.dtd">
<!-- Uploaded to: SVG Repo, www.svgrepo.com, Transformed by: SVG Repo Mixer Tools -->
<svg fill="#dd2727" version="1.1" id="Capa_1" xmlns="http://www.w3.org/2000/svg" xmlns:xlink="http://www.w3.org/1999/xlink" width="800px" height="800px" viewBox="0 0 511.271 511.271" xml:space="preserve">
<g id="SVGRepo_bgCarrier" stroke-width="0"/>
<g id="SVGRepo_tracerCarrier" stroke-linecap="round" stroke-linejoin="round"/>
<g id="SVGRepo_iconCarrier"> <g> <g> <path d="M419.76,96.984l-0.315-0.315c0,0,2.267-88.338-69.72-91.465c-68.354-2.974-114.463,98.876-75.4,211.656 c-3.538,1.052-5.834,1.731-5.834,1.731l-16.591,4.915c-8.749,2.591-11.054,9.477-5.642,15.702 c-49.371,29.95-62.874,98.159-81.96,150.571c-17.557,48.215-55.845,107.081-116.108,94.937 c-41.368-8.338-35.993-93.311-6.704-79.627c11.102,5.184,20.818-11.303,9.649-16.514c-64.547-30.132-71.355,101.821-1.033,115.992 c53.875,10.863,98.57-36.892,120.028-79.636c26.842-53.455,32.675-141.611,90.127-171.562l10.06,10.06 c6.445,6.445,13.875,4.246,16.591-4.915c2.716-9.161,4.915-16.591,4.915-16.591l0.545-1.846 c115.983,44.294,221.889-3.347,218.838-73.382C508.099,94.708,419.76,96.984,419.76,96.984z"/> </g> </g> </g>
</svg>